<?xml version="1.0" encoding="UTF-8" standalone="no"?>
<!DOCTYPE svg PUBLIC "-//W3C//DTD SVG 1.1//EN"
 "http://www.w3.org/Graphics/SVG/1.1/DTD/svg11.dtd">
<!-- Generated by graphviz version 2.30.1 (20201013.1554)
 -->
<!-- Title: snakemake_dag Pages: 1 -->
<svg width="434pt" height="836pt"
 viewBox="0.00 0.00 434.00 836.00" xmlns="http://www.w3.org/2000/svg" xmlns:xlink="http://www.w3.org/1999/xlink">
<g id="graph0" class="graph" transform="scale(1 1) rotate(0) translate(4 832)">
<title>snakemake_dag</title>
<polygon fill="white" stroke="white" points="-4,5 -4,-832 431,-832 431,5 -4,5"/>
<!-- 0 -->
<g id="node1" class="node"><title>0</title>
<path fill="none" stroke="#d89c56" stroke-width="2" d="M241,-36C241,-36 211,-36 211,-36 205,-36 199,-30 199,-24 199,-24 199,-12 199,-12 199,-6 205,-0 211,-0 211,-0 241,-0 241,-0 247,-0 253,-6 253,-12 253,-12 253,-24 253,-24 253,-30 247,-36 241,-36"/>
<text text-anchor="middle" x="226" y="-15.5" font-family="sans" font-size="10.00">all</text>
</g>
<!-- 1 -->
<g id="node2" class="node"><title>1</title>
<path fill="none" stroke="#68d856" stroke-width="2" d="M252.25,-180C252.25,-180 199.75,-180 199.75,-180 193.75,-180 187.75,-174 187.75,-168 187.75,-168 187.75,-156 187.75,-156 187.75,-150 193.75,-144 199.75,-144 199.75,-144 252.25,-144 252.25,-144 258.25,-144 264.25,-150 264.25,-156 264.25,-156 264.25,-168 264.25,-168 264.25,-174 258.25,-180 252.25,-180"/>
<text text-anchor="middle" x="226" y="-159.5" font-family="sans" font-size="10.00">merge_clust</text>
</g>
<!-- 1&#45;&gt;0 -->
<g id="edge1" class="edge"><title>1&#45;&gt;0</title>
<path fill="none" stroke="grey" stroke-width="2" d="M205.621,-143.531C196.193,-134.092 185.994,-121.597 181,-108 175.484,-92.9809 175.484,-87.0191 181,-72 184.784,-61.6962 191.558,-52.0249 198.72,-43.837"/>
<polygon fill="grey" stroke="grey" points="201.34,-46.1603 205.621,-36.469 196.231,-41.3751 201.34,-46.1603"/>
</g>
<!-- 2 -->
<g id="node3" class="node"><title>2</title>
<path fill="none" stroke="#d87556" stroke-width="2" d="M249.25,-108C249.25,-108 202.75,-108 202.75,-108 196.75,-108 190.75,-102 190.75,-96 190.75,-96 190.75,-84 190.75,-84 190.75,-78 196.75,-72 202.75,-72 202.75,-72 249.25,-72 249.25,-72 255.25,-72 261.25,-78 261.25,-84 261.25,-84 261.25,-96 261.25,-96 261.25,-102 255.25,-108 249.25,-108"/>
<text text-anchor="middle" x="226" y="-87.5" font-family="sans" font-size="10.00">tab_format</text>
</g>
<!-- 1&#45;&gt;2 -->
<g id="edge5" class="edge"><title>1&#45;&gt;2</title>
<path fill="none" stroke="grey" stroke-width="2" d="M226,-143.697C226,-135.983 226,-126.712 226,-118.112"/>
<polygon fill="grey" stroke="grey" points="229.5,-118.104 226,-108.104 222.5,-118.104 229.5,-118.104"/>
</g>
<!-- 3 -->
<g id="node4" class="node"><title>3</title>
<path fill="none" stroke="#56d8a9" stroke-width="2" d="M332,-108C332,-108 292,-108 292,-108 286,-108 280,-102 280,-96 280,-96 280,-84 280,-84 280,-78 286,-72 292,-72 292,-72 332,-72 332,-72 338,-72 344,-78 344,-84 344,-84 344,-96 344,-96 344,-102 338,-108 332,-108"/>
<text text-anchor="middle" x="312" y="-87.5" font-family="sans" font-size="10.00">taxassign</text>
</g>
<!-- 1&#45;&gt;3 -->
<g id="edge6" class="edge"><title>1&#45;&gt;3</title>
<path fill="none" stroke="grey" stroke-width="2" d="M247.258,-143.697C258.089,-134.881 271.418,-124.032 283.16,-114.474"/>
<polygon fill="grey" stroke="grey" points="285.44,-117.132 290.986,-108.104 281.021,-111.703 285.44,-117.132"/>
</g>
<!-- 2&#45;&gt;0 -->
<g id="edge2" class="edge"><title>2&#45;&gt;0</title>
<path fill="none" stroke="grey" stroke-width="2" d="M226,-71.6966C226,-63.9827 226,-54.7125 226,-46.1124"/>
<polygon fill="grey" stroke="grey" points="229.5,-46.1043 226,-36.1043 222.5,-46.1044 229.5,-46.1043"/>
</g>
<!-- 3&#45;&gt;0 -->
<g id="edge3" class="edge"><title>3&#45;&gt;0</title>
<path fill="none" stroke="grey" stroke-width="2" d="M290.742,-71.6966C279.911,-62.8807 266.582,-52.0321 254.84,-42.4742"/>
<polygon fill="grey" stroke="grey" points="256.979,-39.7026 247.014,-36.1043 252.56,-45.1316 256.979,-39.7026"/>
</g>
<!-- 4 -->
<g id="node5" class="node"><title>4</title>
<path fill="none" stroke="#569ad8" stroke-width="2" d="M244.25,-252C244.25,-252 207.75,-252 207.75,-252 201.75,-252 195.75,-246 195.75,-240 195.75,-240 195.75,-228 195.75,-228 195.75,-222 201.75,-216 207.75,-216 207.75,-216 244.25,-216 244.25,-216 250.25,-216 256.25,-222 256.25,-228 256.25,-228 256.25,-240 256.25,-240 256.25,-246 250.25,-252 244.25,-252"/>
<text text-anchor="middle" x="226" y="-231.5" font-family="sans" font-size="10.00">otu_clust</text>
</g>
<!-- 4&#45;&gt;1 -->
<g id="edge4" class="edge"><title>4&#45;&gt;1</title>
<path fill="none" stroke="grey" stroke-width="2" d="M226,-215.697C226,-207.983 226,-198.712 226,-190.112"/>
<polygon fill="grey" stroke="grey" points="229.5,-190.104 226,-180.104 222.5,-190.104 229.5,-190.104"/>
</g>
<!-- 5 -->
<g id="node6" class="node"><title>5</title>
<path fill="none" stroke="#d8bc56" stroke-width="2" d="M270,-324C270,-324 182,-324 182,-324 176,-324 170,-318 170,-312 170,-312 170,-300 170,-300 170,-294 176,-288 182,-288 182,-288 270,-288 270,-288 276,-288 282,-294 282,-300 282,-300 282,-312 282,-312 282,-318 276,-324 270,-324"/>
<text text-anchor="middle" x="226" y="-303.5" font-family="sans" font-size="10.00">merge_demultiplex</text>
</g>
<!-- 5&#45;&gt;4 -->
<g id="edge7" class="edge"><title>5&#45;&gt;4</title>
<path fill="none" stroke="grey" stroke-width="2" d="M226,-287.697C226,-279.983 226,-270.712 226,-262.112"/>
<polygon fill="grey" stroke="grey" points="229.5,-262.104 226,-252.104 222.5,-262.104 229.5,-262.104"/>
</g>
<!-- 6 -->
<g id="node7" class="node"><title>6</title>
<path fill="none" stroke="#88d856" stroke-width="2" d="M110.25,-396C110.25,-396 79.75,-396 79.75,-396 73.75,-396 67.75,-390 67.75,-384 67.75,-384 67.75,-372 67.75,-372 67.75,-366 73.75,-360 79.75,-360 79.75,-360 110.25,-360 110.25,-360 116.25,-360 122.25,-366 122.25,-372 122.25,-372 122.25,-384 122.25,-384 122.25,-390 116.25,-396 110.25,-396"/>
<text text-anchor="middle" x="95" y="-375.5" font-family="sans" font-size="10.00">basicfilt</text>
</g>
<!-- 6&#45;&gt;5 -->
<g id="edge8" class="edge"><title>6&#45;&gt;5</title>
<path fill="none" stroke="grey" stroke-width="2" d="M122.462,-362.326C140.549,-352.661 164.558,-339.831 184.903,-328.96"/>
<polygon fill="grey" stroke="grey" points="186.787,-331.922 193.958,-324.122 183.488,-325.748 186.787,-331.922"/>
</g>
<!-- 7 -->
<g id="node8" class="node"><title>7</title>
<path fill="none" stroke="#88d856" stroke-width="2" d="M198.25,-396C198.25,-396 167.75,-396 167.75,-396 161.75,-396 155.75,-390 155.75,-384 155.75,-384 155.75,-372 155.75,-372 155.75,-366 161.75,-360 167.75,-360 167.75,-360 198.25,-360 198.25,-360 204.25,-360 210.25,-366 210.25,-372 210.25,-372 210.25,-384 210.25,-384 210.25,-390 204.25,-396 198.25,-396"/>
<text text-anchor="middle" x="183" y="-375.5" font-family="sans" font-size="10.00">basicfilt</text>
</g>
<!-- 7&#45;&gt;5 -->
<g id="edge9" class="edge"><title>7&#45;&gt;5</title>
<path fill="none" stroke="grey" stroke-width="2" d="M193.629,-359.697C198.628,-351.559 204.691,-341.689 210.212,-332.701"/>
<polygon fill="grey" stroke="grey" points="213.241,-334.457 215.493,-324.104 207.277,-330.793 213.241,-334.457"/>
</g>
<!-- 8 -->
<g id="node9" class="node"><title>8</title>
<path fill="none" stroke="#88d856" stroke-width="2" d="M285.25,-396C285.25,-396 254.75,-396 254.75,-396 248.75,-396 242.75,-390 242.75,-384 242.75,-384 242.75,-372 242.75,-372 242.75,-366 248.75,-360 254.75,-360 254.75,-360 285.25,-360 285.25,-360 291.25,-360 297.25,-366 297.25,-372 297.25,-372 297.25,-384 297.25,-384 297.25,-390 291.25,-396 285.25,-396"/>
<text text-anchor="middle" x="270" y="-375.5" font-family="sans" font-size="10.00">basicfilt</text>
</g>
<!-- 8&#45;&gt;5 -->
<g id="edge10" class="edge"><title>8&#45;&gt;5</title>
<path fill="none" stroke="grey" stroke-width="2" d="M259.124,-359.697C254.008,-351.559 247.805,-341.689 242.155,-332.701"/>
<polygon fill="grey" stroke="grey" points="245.036,-330.708 236.751,-324.104 239.11,-334.433 245.036,-330.708"/>
</g>
<!-- 9 -->
<g id="node10" class="node"><title>9</title>
<path fill="none" stroke="#88d856" stroke-width="2" d="M380.25,-396C380.25,-396 349.75,-396 349.75,-396 343.75,-396 337.75,-390 337.75,-384 337.75,-384 337.75,-372 337.75,-372 337.75,-366 343.75,-360 349.75,-360 349.75,-360 380.25,-360 380.25,-360 386.25,-360 392.25,-366 392.25,-372 392.25,-372 392.25,-384 392.25,-384 392.25,-390 386.25,-396 380.25,-396"/>
<text text-anchor="middle" x="365" y="-375.5" font-family="sans" font-size="10.00">basicfilt</text>
</g>
<!-- 9&#45;&gt;5 -->
<g id="edge11" class="edge"><title>9&#45;&gt;5</title>
<path fill="none" stroke="grey" stroke-width="2" d="M337.538,-363.17C317.928,-353.295 291.167,-339.818 268.772,-328.54"/>
<polygon fill="grey" stroke="grey" points="270.301,-325.391 259.795,-324.019 267.152,-331.643 270.301,-325.391"/>
</g>
<!-- 10 -->
<g id="node11" class="node"><title>10</title>
<path fill="none" stroke="#56d88a" stroke-width="2" d="M103,-468C103,-468 43,-468 43,-468 37,-468 31,-462 31,-456 31,-456 31,-444 31,-444 31,-438 37,-432 43,-432 43,-432 103,-432 103,-432 109,-432 115,-438 115,-444 115,-444 115,-456 115,-456 115,-462 109,-468 103,-468"/>
<text text-anchor="middle" x="73" y="-447.5" font-family="sans" font-size="10.00">merge_derepl</text>
</g>
<!-- 10&#45;&gt;6 -->
<g id="edge12" class="edge"><title>10&#45;&gt;6</title>
<path fill="none" stroke="grey" stroke-width="2" d="M78.4382,-431.697C80.8892,-423.898 83.8402,-414.509 86.568,-405.829"/>
<polygon fill="grey" stroke="grey" points="89.965,-406.694 89.6244,-396.104 83.287,-404.595 89.965,-406.694"/>
</g>
<!-- 11 -->
<g id="node12" class="node"><title>11</title>
<path fill="none" stroke="#56d88a" stroke-width="2" d="M206,-468C206,-468 146,-468 146,-468 140,-468 134,-462 134,-456 134,-456 134,-444 134,-444 134,-438 140,-432 146,-432 146,-432 206,-432 206,-432 212,-432 218,-438 218,-444 218,-444 218,-456 218,-456 218,-462 212,-468 206,-468"/>
<text text-anchor="middle" x="176" y="-447.5" font-family="sans" font-size="10.00">merge_derepl</text>
</g>
<!-- 11&#45;&gt;7 -->
<g id="edge13" class="edge"><title>11&#45;&gt;7</title>
<path fill="none" stroke="grey" stroke-width="2" d="M177.73,-431.697C178.502,-423.983 179.429,-414.712 180.289,-406.112"/>
<polygon fill="grey" stroke="grey" points="183.777,-406.403 181.29,-396.104 176.812,-405.706 183.777,-406.403"/>
</g>
<!-- 12 -->
<g id="node13" class="node"><title>12</title>
<path fill="none" stroke="#56d88a" stroke-width="2" d="M308,-468C308,-468 248,-468 248,-468 242,-468 236,-462 236,-456 236,-456 236,-444 236,-444 236,-438 242,-432 248,-432 248,-432 308,-432 308,-432 314,-432 320,-438 320,-444 320,-444 320,-456 320,-456 320,-462 314,-468 308,-468"/>
<text text-anchor="middle" x="278" y="-447.5" font-family="sans" font-size="10.00">merge_derepl</text>
</g>
<!-- 12&#45;&gt;8 -->
<g id="edge14" class="edge"><title>12&#45;&gt;8</title>
<path fill="none" stroke="grey" stroke-width="2" d="M276.022,-431.697C275.141,-423.983 274.081,-414.712 273.099,-406.112"/>
<polygon fill="grey" stroke="grey" points="276.568,-405.642 271.955,-396.104 269.613,-406.437 276.568,-405.642"/>
</g>
<!-- 13 -->
<g id="node14" class="node"><title>13</title>
<path fill="none" stroke="#56d88a" stroke-width="2" d="M410,-468C410,-468 350,-468 350,-468 344,-468 338,-462 338,-456 338,-456 338,-444 338,-444 338,-438 344,-432 350,-432 350,-432 410,-432 410,-432 416,-432 422,-438 422,-444 422,-444 422,-456 422,-456 422,-462 416,-468 410,-468"/>
<text text-anchor="middle" x="380" y="-447.5" font-family="sans" font-size="10.00">merge_derepl</text>
</g>
<!-- 13&#45;&gt;9 -->
<g id="edge15" class="edge"><title>13&#45;&gt;9</title>
<path fill="none" stroke="grey" stroke-width="2" d="M376.292,-431.697C374.639,-423.983 372.653,-414.712 370.81,-406.112"/>
<polygon fill="grey" stroke="grey" points="374.183,-405.149 368.665,-396.104 367.338,-406.616 374.183,-405.149"/>
</g>
<!-- 14 -->
<g id="node15" class="node"><title>14</title>
<path fill="none" stroke="#d85656" stroke-width="2" d="M92,-540C92,-540 48,-540 48,-540 42,-540 36,-534 36,-528 36,-528 36,-516 36,-516 36,-510 42,-504 48,-504 48,-504 92,-504 92,-504 98,-504 104,-510 104,-516 104,-516 104,-528 104,-528 104,-534 98,-540 92,-540"/>
<text text-anchor="middle" x="70" y="-519.5" font-family="sans" font-size="10.00">split_fasta</text>
</g>
<!-- 14&#45;&gt;10 -->
<g id="edge16" class="edge"><title>14&#45;&gt;10</title>
<path fill="none" stroke="grey" stroke-width="2" d="M70.7416,-503.697C71.0722,-495.983 71.4695,-486.712 71.838,-478.112"/>
<polygon fill="grey" stroke="grey" points="75.3355,-478.245 72.267,-468.104 68.3419,-477.945 75.3355,-478.245"/>
</g>
<!-- 15 -->
<g id="node16" class="node"><title>15</title>
<path fill="none" stroke="#d85656" stroke-width="2" d="M195,-540C195,-540 151,-540 151,-540 145,-540 139,-534 139,-528 139,-528 139,-516 139,-516 139,-510 145,-504 151,-504 151,-504 195,-504 195,-504 201,-504 207,-510 207,-516 207,-516 207,-528 207,-528 207,-534 201,-540 195,-540"/>
<text text-anchor="middle" x="173" y="-519.5" font-family="sans" font-size="10.00">split_fasta</text>
</g>
<!-- 15&#45;&gt;11 -->
<g id="edge17" class="edge"><title>15&#45;&gt;11</title>
<path fill="none" stroke="grey" stroke-width="2" d="M173.742,-503.697C174.072,-495.983 174.469,-486.712 174.838,-478.112"/>
<polygon fill="grey" stroke="grey" points="178.335,-478.245 175.267,-468.104 171.342,-477.945 178.335,-478.245"/>
</g>
<!-- 16 -->
<g id="node17" class="node"><title>16</title>
<path fill="none" stroke="#d85656" stroke-width="2" d="M300,-540C300,-540 256,-540 256,-540 250,-540 244,-534 244,-528 244,-528 244,-516 244,-516 244,-510 250,-504 256,-504 256,-504 300,-504 300,-504 306,-504 312,-510 312,-516 312,-516 312,-528 312,-528 312,-534 306,-540 300,-540"/>
<text text-anchor="middle" x="278" y="-519.5" font-family="sans" font-size="10.00">split_fasta</text>
</g>
<!-- 16&#45;&gt;12 -->
<g id="edge18" class="edge"><title>16&#45;&gt;12</title>
<path fill="none" stroke="grey" stroke-width="2" d="M278,-503.697C278,-495.983 278,-486.712 278,-478.112"/>
<polygon fill="grey" stroke="grey" points="281.5,-478.104 278,-468.104 274.5,-478.104 281.5,-478.104"/>
</g>
<!-- 17 -->
<g id="node18" class="node"><title>17</title>
<path fill="none" stroke="#d85656" stroke-width="2" d="M402,-540C402,-540 358,-540 358,-540 352,-540 346,-534 346,-528 346,-528 346,-516 346,-516 346,-510 352,-504 358,-504 358,-504 402,-504 402,-504 408,-504 414,-510 414,-516 414,-516 414,-528 414,-528 414,-534 408,-540 402,-540"/>
<text text-anchor="middle" x="380" y="-519.5" font-family="sans" font-size="10.00">split_fasta</text>
</g>
<!-- 17&#45;&gt;13 -->
<g id="edge19" class="edge"><title>17&#45;&gt;13</title>
<path fill="none" stroke="grey" stroke-width="2" d="M380,-503.697C380,-495.983 380,-486.712 380,-478.112"/>
<polygon fill="grey" stroke="grey" points="383.5,-478.104 380,-468.104 376.5,-478.104 383.5,-478.104"/>
</g>
<!-- 18 -->
<g id="node19" class="node"><title>18</title>
<path fill="none" stroke="#56d86b" stroke-width="2" stroke-dasharray="5,2" d="M89.25,-612C89.25,-612 38.75,-612 38.75,-612 32.75,-612 26.75,-606 26.75,-600 26.75,-600 26.75,-588 26.75,-588 26.75,-582 32.75,-576 38.75,-576 38.75,-576 89.25,-576 89.25,-576 95.25,-576 101.25,-582 101.25,-588 101.25,-588 101.25,-600 101.25,-600 101.25,-606 95.25,-612 89.25,-612"/>
<text text-anchor="middle" x="64" y="-591.5" font-family="sans" font-size="10.00">demultiplex</text>
</g>
<!-- 18&#45;&gt;14 -->
<g id="edge20" class="edge"><title>18&#45;&gt;14</title>
<path fill="none" stroke="grey" stroke-width="2" d="M65.4831,-575.697C66.1443,-567.983 66.9389,-558.712 67.6761,-550.112"/>
<polygon fill="grey" stroke="grey" points="71.167,-550.367 68.5339,-540.104 64.1926,-549.769 71.167,-550.367"/>
</g>
<!-- 19 -->
<g id="node20" class="node"><title>19</title>
<path fill="none" stroke="#56d86b" stroke-width="2" stroke-dasharray="5,2" d="M198.25,-612C198.25,-612 147.75,-612 147.75,-612 141.75,-612 135.75,-606 135.75,-600 135.75,-600 135.75,-588 135.75,-588 135.75,-582 141.75,-576 147.75,-576 147.75,-576 198.25,-576 198.25,-576 204.25,-576 210.25,-582 210.25,-588 210.25,-588 210.25,-600 210.25,-600 210.25,-606 204.25,-612 198.25,-612"/>
<text text-anchor="middle" x="173" y="-591.5" font-family="sans" font-size="10.00">demultiplex</text>
</g>
<!-- 19&#45;&gt;15 -->
<g id="edge21" class="edge"><title>19&#45;&gt;15</title>
<path fill="none" stroke="grey" stroke-width="2" d="M173,-575.697C173,-567.983 173,-558.712 173,-550.112"/>
<polygon fill="grey" stroke="grey" points="176.5,-550.104 173,-540.104 169.5,-550.104 176.5,-550.104"/>
</g>
<!-- 20 -->
<g id="node21" class="node"><title>20</title>
<path fill="none" stroke="#56d86b" stroke-width="2" d="M303.25,-612C303.25,-612 252.75,-612 252.75,-612 246.75,-612 240.75,-606 240.75,-600 240.75,-600 240.75,-588 240.75,-588 240.75,-582 246.75,-576 252.75,-576 252.75,-576 303.25,-576 303.25,-576 309.25,-576 315.25,-582 315.25,-588 315.25,-588 315.25,-600 315.25,-600 315.25,-606 309.25,-612 303.25,-612"/>
<text text-anchor="middle" x="278" y="-591.5" font-family="sans" font-size="10.00">demultiplex</text>
</g>
<!-- 20&#45;&gt;16 -->
<g id="edge22" class="edge"><title>20&#45;&gt;16</title>
<path fill="none" stroke="grey" stroke-width="2" d="M278,-575.697C278,-567.983 278,-558.712 278,-550.112"/>
<polygon fill="grey" stroke="grey" points="281.5,-550.104 278,-540.104 274.5,-550.104 281.5,-550.104"/>
</g>
<!-- 21 -->
<g id="node22" class="node"><title>21</title>
<path fill="none" stroke="#56d86b" stroke-width="2" stroke-dasharray="5,2" d="M405.25,-612C405.25,-612 354.75,-612 354.75,-612 348.75,-612 342.75,-606 342.75,-600 342.75,-600 342.75,-588 342.75,-588 342.75,-582 348.75,-576 354.75,-576 354.75,-576 405.25,-576 405.25,-576 411.25,-576 417.25,-582 417.25,-588 417.25,-588 417.25,-600 417.25,-600 417.25,-606 411.25,-612 405.25,-612"/>
<text text-anchor="middle" x="380" y="-591.5" font-family="sans" font-size="10.00">demultiplex</text>
</g>
<!-- 21&#45;&gt;17 -->
<g id="edge23" class="edge"><title>21&#45;&gt;17</title>
<path fill="none" stroke="grey" stroke-width="2" d="M380,-575.697C380,-567.983 380,-558.712 380,-550.112"/>
<polygon fill="grey" stroke="grey" points="383.5,-550.104 380,-540.104 376.5,-550.104 383.5,-550.104"/>
</g>
<!-- 22 -->
<g id="node23" class="node"><title>22</title>
<path fill="none" stroke="#ced856" stroke-width="2" stroke-dasharray="5,2" d="M67,-684C67,-684 37,-684 37,-684 31,-684 25,-678 25,-672 25,-672 25,-660 25,-660 25,-654 31,-648 37,-648 37,-648 67,-648 67,-648 73,-648 79,-654 79,-660 79,-660 79,-672 79,-672 79,-678 73,-684 67,-684"/>
<text text-anchor="middle" x="52" y="-663.5" font-family="sans" font-size="10.00">alifilt</text>
</g>
<!-- 22&#45;&gt;18 -->
<g id="edge24" class="edge"><title>22&#45;&gt;18</title>
<path fill="none" stroke="grey" stroke-width="2" d="M54.9663,-647.697C56.2887,-639.983 57.8779,-630.712 59.3522,-622.112"/>
<polygon fill="grey" stroke="grey" points="62.8278,-622.552 61.0678,-612.104 55.9284,-621.369 62.8278,-622.552"/>
</g>
<!-- 23 -->
<g id="node24" class="node"><title>23</title>
<path fill="none" stroke="#ced856" stroke-width="2" stroke-dasharray="5,2" d="M186,-684C186,-684 156,-684 156,-684 150,-684 144,-678 144,-672 144,-672 144,-660 144,-660 144,-654 150,-648 156,-648 156,-648 186,-648 186,-648 192,-648 198,-654 198,-660 198,-660 198,-672 198,-672 198,-678 192,-684 186,-684"/>
<text text-anchor="middle" x="171" y="-663.5" font-family="sans" font-size="10.00">alifilt</text>
</g>
<!-- 23&#45;&gt;19 -->
<g id="edge25" class="edge"><title>23&#45;&gt;19</title>
<path fill="none" stroke="grey" stroke-width="2" d="M171.494,-647.697C171.715,-639.983 171.98,-630.712 172.225,-622.112"/>
<polygon fill="grey" stroke="grey" points="175.724,-622.2 172.511,-612.104 168.727,-622 175.724,-622.2"/>
</g>
<!-- 24 -->
<g id="node25" class="node"><title>24</title>
<path fill="none" stroke="#ced856" stroke-width="2" d="M293,-684C293,-684 263,-684 263,-684 257,-684 251,-678 251,-672 251,-672 251,-660 251,-660 251,-654 257,-648 263,-648 263,-648 293,-648 293,-648 299,-648 305,-654 305,-660 305,-660 305,-672 305,-672 305,-678 299,-684 293,-684"/>
<text text-anchor="middle" x="278" y="-663.5" font-family="sans" font-size="10.00">alifilt</text>
</g>
<!-- 24&#45;&gt;20 -->
<g id="edge26" class="edge"><title>24&#45;&gt;20</title>
<path fill="none" stroke="grey" stroke-width="2" d="M278,-647.697C278,-639.983 278,-630.712 278,-622.112"/>
<polygon fill="grey" stroke="grey" points="281.5,-622.104 278,-612.104 274.5,-622.104 281.5,-622.104"/>
</g>
<!-- 25 -->
<g id="node26" class="node"><title>25</title>
<path fill="none" stroke="#ced856" stroke-width="2" stroke-dasharray="5,2" d="M396,-684C396,-684 366,-684 366,-684 360,-684 354,-678 354,-672 354,-672 354,-660 354,-660 354,-654 360,-648 366,-648 366,-648 396,-648 396,-648 402,-648 408,-654 408,-660 408,-660 408,-672 408,-672 408,-678 402,-684 396,-684"/>
<text text-anchor="middle" x="381" y="-663.5" font-family="sans" font-size="10.00">alifilt</text>
</g>
<!-- 25&#45;&gt;21 -->
<g id="edge27" class="edge"><title>25&#45;&gt;21</title>
<path fill="none" stroke="grey" stroke-width="2" d="M380.753,-647.697C380.643,-639.983 380.51,-630.712 380.387,-622.112"/>
<polygon fill="grey" stroke="grey" points="383.887,-622.053 380.244,-612.104 376.888,-622.153 383.887,-622.053"/>
</g>
<!-- 26 -->
<g id="node27" class="node"><title>26</title>
<path fill="none" stroke="#56c1d8" stroke-width="2" stroke-dasharray="5,2" d="M81,-756C81,-756 21,-756 21,-756 15,-756 9,-750 9,-744 9,-744 9,-732 9,-732 9,-726 15,-720 21,-720 21,-720 81,-720 81,-720 87,-720 93,-726 93,-732 93,-732 93,-744 93,-744 93,-750 87,-756 81,-756"/>
<text text-anchor="middle" x="51" y="-735.5" font-family="sans" font-size="10.00">merge_paired</text>
</g>
<!-- 26&#45;&gt;22 -->
<g id="edge28" class="edge"><title>26&#45;&gt;22</title>
<path fill="none" stroke="grey" stroke-width="2" d="M51.2472,-719.697C51.3574,-711.983 51.4898,-702.712 51.6127,-694.112"/>
<polygon fill="grey" stroke="grey" points="55.1124,-694.153 51.7557,-684.104 48.1131,-694.053 55.1124,-694.153"/>
</g>
<!-- 27 -->
<g id="node28" class="node"><title>27</title>
<path fill="none" stroke="#56c1d8" stroke-width="2" stroke-dasharray="5,2" d="M201,-756C201,-756 141,-756 141,-756 135,-756 129,-750 129,-744 129,-744 129,-732 129,-732 129,-726 135,-720 141,-720 141,-720 201,-720 201,-720 207,-720 213,-726 213,-732 213,-732 213,-744 213,-744 213,-750 207,-756 201,-756"/>
<text text-anchor="middle" x="171" y="-735.5" font-family="sans" font-size="10.00">merge_paired</text>
</g>
<!-- 27&#45;&gt;23 -->
<g id="edge29" class="edge"><title>27&#45;&gt;23</title>
<path fill="none" stroke="grey" stroke-width="2" d="M171,-719.697C171,-711.983 171,-702.712 171,-694.112"/>
<polygon fill="grey" stroke="grey" points="174.5,-694.104 171,-684.104 167.5,-694.104 174.5,-694.104"/>
</g>
<!-- 28 -->
<g id="node29" class="node"><title>28</title>
<path fill="none" stroke="#56c1d8" stroke-width="2" d="M308,-756C308,-756 248,-756 248,-756 242,-756 236,-750 236,-744 236,-744 236,-732 236,-732 236,-726 242,-720 248,-720 248,-720 308,-720 308,-720 314,-720 320,-726 320,-732 320,-732 320,-744 320,-744 320,-750 314,-756 308,-756"/>
<text text-anchor="middle" x="278" y="-735.5" font-family="sans" font-size="10.00">merge_paired</text>
</g>
<!-- 28&#45;&gt;24 -->
<g id="edge30" class="edge"><title>28&#45;&gt;24</title>
<path fill="none" stroke="grey" stroke-width="2" d="M278,-719.697C278,-711.983 278,-702.712 278,-694.112"/>
<polygon fill="grey" stroke="grey" points="281.5,-694.104 278,-684.104 274.5,-694.104 281.5,-694.104"/>
</g>
<!-- 29 -->
<g id="node30" class="node"><title>29</title>
<path fill="none" stroke="#56c1d8" stroke-width="2" stroke-dasharray="5,2" d="M411,-756C411,-756 351,-756 351,-756 345,-756 339,-750 339,-744 339,-744 339,-732 339,-732 339,-726 345,-720 351,-720 351,-720 411,-720 411,-720 417,-720 423,-726 423,-732 423,-732 423,-744 423,-744 423,-750 417,-756 411,-756"/>
<text text-anchor="middle" x="381" y="-735.5" font-family="sans" font-size="10.00">merge_paired</text>
</g>
<!-- 29&#45;&gt;25 -->
<g id="edge31" class="edge"><title>29&#45;&gt;25</title>
<path fill="none" stroke="grey" stroke-width="2" d="M381,-719.697C381,-711.983 381,-702.712 381,-694.112"/>
<polygon fill="grey" stroke="grey" points="384.5,-694.104 381,-684.104 377.5,-694.104 384.5,-694.104"/>
</g>
<!-- 30 -->
<g id="node31" class="node"><title>30</title>
<path fill="none" stroke="#afd856" stroke-width="2" stroke-dasharray="5,2" d="M88,-828C88,-828 12,-828 12,-828 6,-828 0,-822 0,-816 0,-816 0,-804 0,-804 0,-798 6,-792 12,-792 12,-792 88,-792 88,-792 94,-792 100,-798 100,-804 100,-804 100,-816 100,-816 100,-822 94,-828 88,-828"/>
<text text-anchor="middle" x="50" y="-813" font-family="sans" font-size="10.00">split_fastq</text>
<text text-anchor="middle" x="50" y="-802" font-family="sans" font-size="10.00">run: mother_ITS2</text>
</g>
<!-- 30&#45;&gt;26 -->
<g id="edge32" class="edge"><title>30&#45;&gt;26</title>
<path fill="none" stroke="grey" stroke-width="2" d="M50.2472,-791.697C50.3574,-783.983 50.4898,-774.712 50.6127,-766.112"/>
<polygon fill="grey" stroke="grey" points="54.1124,-766.153 50.7557,-756.104 47.1131,-766.053 54.1124,-766.153"/>
</g>
<!-- 31 -->
<g id="node32" class="node"><title>31</title>
<path fill="none" stroke="#afd856" stroke-width="2" stroke-dasharray="5,2" d="M212,-828C212,-828 130,-828 130,-828 124,-828 118,-822 118,-816 118,-816 118,-804 118,-804 118,-798 124,-792 130,-792 130,-792 212,-792 212,-792 218,-792 224,-798 224,-804 224,-804 224,-816 224,-816 224,-822 218,-828 212,-828"/>
<text text-anchor="middle" x="171" y="-813" font-family="sans" font-size="10.00">split_fastq</text>
<text text-anchor="middle" x="171" y="-802" font-family="sans" font-size="10.00">run: seedling_ITS2</text>
</g>
<!-- 31&#45;&gt;27 -->
<g id="edge33" class="edge"><title>31&#45;&gt;27</title>
<path fill="none" stroke="grey" stroke-width="2" d="M171,-791.697C171,-783.983 171,-774.712 171,-766.112"/>
<polygon fill="grey" stroke="grey" points="174.5,-766.104 171,-756.104 167.5,-766.104 174.5,-766.104"/>
</g>
<!-- 32 -->
<g id="node33" class="node"><title>32</title>
<path fill="none" stroke="#afd856" stroke-width="2" d="M307.25,-828C307.25,-828 254.75,-828 254.75,-828 248.75,-828 242.75,-822 242.75,-816 242.75,-816 242.75,-804 242.75,-804 242.75,-798 248.75,-792 254.75,-792 254.75,-792 307.25,-792 307.25,-792 313.25,-792 319.25,-798 319.25,-804 319.25,-804 319.25,-816 319.25,-816 319.25,-822 313.25,-828 307.25,-828"/>
<text text-anchor="middle" x="281" y="-813" font-family="sans" font-size="10.00">split_fastq</text>
<text text-anchor="middle" x="281" y="-802" font-family="sans" font-size="10.00">run: jm_ITS2</text>
</g>
<!-- 32&#45;&gt;28 -->
<g id="edge34" class="edge"><title>32&#45;&gt;28</title>
<path fill="none" stroke="grey" stroke-width="2" d="M280.258,-791.697C279.928,-783.983 279.531,-774.712 279.162,-766.112"/>
<polygon fill="grey" stroke="grey" points="282.658,-765.945 278.733,-756.104 275.665,-766.245 282.658,-765.945"/>
</g>
<!-- 33 -->
<g id="node34" class="node"><title>33</title>
<path fill="none" stroke="#afd856" stroke-width="2" stroke-dasharray="5,2" d="M414.25,-828C414.25,-828 349.75,-828 349.75,-828 343.75,-828 337.75,-822 337.75,-816 337.75,-816 337.75,-804 337.75,-804 337.75,-798 343.75,-792 349.75,-792 349.75,-792 414.25,-792 414.25,-792 420.25,-792 426.25,-798 426.25,-804 426.25,-804 426.25,-816 426.25,-816 426.25,-822 420.25,-828 414.25,-828"/>
<text text-anchor="middle" x="382" y="-813" font-family="sans" font-size="10.00">split_fastq</text>
<text text-anchor="middle" x="382" y="-802" font-family="sans" font-size="10.00">run: jm_ITS2_2</text>
</g>
<!-- 33&#45;&gt;29 -->
<g id="edge35" class="edge"><title>33&#45;&gt;29</title>
<path fill="none" stroke="grey" stroke-width="2" d="M381.753,-791.697C381.643,-783.983 381.51,-774.712 381.387,-766.112"/>
<polygon fill="grey" stroke="grey" points="384.887,-766.053 381.244,-756.104 377.888,-766.153 384.887,-766.053"/>
</g>
</g>
</svg>
