<?xml version="1.0" encoding="UTF-8" standalone="no"?>
<!DOCTYPE svg PUBLIC "-//W3C//DTD SVG 1.1//EN"
 "http://www.w3.org/Graphics/SVG/1.1/DTD/svg11.dtd">
<!-- Generated by graphviz version 2.40.1 (0)
 -->
<!-- Title: snakemake_dag Pages: 1 -->
<svg width="435pt" height="836pt"
 viewBox="0.00 0.00 434.50 836.00" xmlns="http://www.w3.org/2000/svg" xmlns:xlink="http://www.w3.org/1999/xlink">
<g id="graph0" class="graph" transform="scale(1 1) rotate(0) translate(4 832)">
<title>snakemake_dag</title>
<polygon fill="#ffffff" stroke="transparent" points="-4,4 -4,-832 430.5,-832 430.5,4 -4,4"/>
<!-- 0 -->
<g id="node1" class="node">
<title>0</title>
<path fill="none" stroke="#d8bc56" stroke-width="2" d="M241,-36C241,-36 211,-36 211,-36 205,-36 199,-30 199,-24 199,-24 199,-12 199,-12 199,-6 205,0 211,0 211,0 241,0 241,0 247,0 253,-6 253,-12 253,-12 253,-24 253,-24 253,-30 247,-36 241,-36"/>
<text text-anchor="middle" x="226" y="-15.5" font-family="sans" font-size="10.00" fill="#000000">all</text>
</g>
<!-- 1 -->
<g id="node2" class="node">
<title>1</title>
<path fill="none" stroke="#ced856" stroke-width="2" d="M252.5,-180C252.5,-180 199.5,-180 199.5,-180 193.5,-180 187.5,-174 187.5,-168 187.5,-168 187.5,-156 187.5,-156 187.5,-150 193.5,-144 199.5,-144 199.5,-144 252.5,-144 252.5,-144 258.5,-144 264.5,-150 264.5,-156 264.5,-156 264.5,-168 264.5,-168 264.5,-174 258.5,-180 252.5,-180"/>
<text text-anchor="middle" x="226" y="-159.5" font-family="sans" font-size="10.00" fill="#000000">merge_clust</text>
</g>
<!-- 1&#45;&gt;0 -->
<g id="edge1" class="edge">
<title>1&#45;&gt;0</title>
<path fill="none" stroke="#c0c0c0" stroke-width="2" d="M205.1422,-143.6461C195.846,-134.0709 185.9022,-121.54 181,-108 175.5532,-92.9557 175.5532,-87.0443 181,-72 184.7149,-61.7392 191.3252,-52.0579 198.3548,-43.8033"/>
<polygon fill="#c0c0c0" stroke="#c0c0c0" stroke-width="2" points="200.9944,-46.1031 205.1422,-36.3539 195.82,-41.3886 200.9944,-46.1031"/>
</g>
<!-- 2 -->
<g id="node3" class="node">
<title>2</title>
<path fill="none" stroke="#56d8a9" stroke-width="2" d="M249.5,-108C249.5,-108 202.5,-108 202.5,-108 196.5,-108 190.5,-102 190.5,-96 190.5,-96 190.5,-84 190.5,-84 190.5,-78 196.5,-72 202.5,-72 202.5,-72 249.5,-72 249.5,-72 255.5,-72 261.5,-78 261.5,-84 261.5,-84 261.5,-96 261.5,-96 261.5,-102 255.5,-108 249.5,-108"/>
<text text-anchor="middle" x="226" y="-87.5" font-family="sans" font-size="10.00" fill="#000000">tab_format</text>
</g>
<!-- 1&#45;&gt;2 -->
<g id="edge5" class="edge">
<title>1&#45;&gt;2</title>
<path fill="none" stroke="#c0c0c0" stroke-width="2" d="M226,-143.8314C226,-136.131 226,-126.9743 226,-118.4166"/>
<polygon fill="#c0c0c0" stroke="#c0c0c0" stroke-width="2" points="229.5001,-118.4132 226,-108.4133 222.5001,-118.4133 229.5001,-118.4132"/>
</g>
<!-- 3 -->
<g id="node4" class="node">
<title>3</title>
<path fill="none" stroke="#56d86b" stroke-width="2" d="M332,-108C332,-108 292,-108 292,-108 286,-108 280,-102 280,-96 280,-96 280,-84 280,-84 280,-78 286,-72 292,-72 292,-72 332,-72 332,-72 338,-72 344,-78 344,-84 344,-84 344,-96 344,-96 344,-102 338,-108 332,-108"/>
<text text-anchor="middle" x="312" y="-87.5" font-family="sans" font-size="10.00" fill="#000000">taxassign</text>
</g>
<!-- 1&#45;&gt;3 -->
<g id="edge6" class="edge">
<title>1&#45;&gt;3</title>
<path fill="none" stroke="#c0c0c0" stroke-width="2" d="M247.7014,-143.8314C258.1921,-135.0485 270.9455,-124.3712 282.3194,-114.8489"/>
<polygon fill="#c0c0c0" stroke="#c0c0c0" stroke-width="2" points="284.8847,-117.2659 290.3055,-108.1628 280.3911,-111.8986 284.8847,-117.2659"/>
</g>
<!-- 2&#45;&gt;0 -->
<g id="edge2" class="edge">
<title>2&#45;&gt;0</title>
<path fill="none" stroke="#c0c0c0" stroke-width="2" d="M226,-71.8314C226,-64.131 226,-54.9743 226,-46.4166"/>
<polygon fill="#c0c0c0" stroke="#c0c0c0" stroke-width="2" points="229.5001,-46.4132 226,-36.4133 222.5001,-46.4133 229.5001,-46.4132"/>
</g>
<!-- 3&#45;&gt;0 -->
<g id="edge3" class="edge">
<title>3&#45;&gt;0</title>
<path fill="none" stroke="#c0c0c0" stroke-width="2" d="M290.2986,-71.8314C279.8079,-63.0485 267.0545,-52.3712 255.6806,-42.8489"/>
<polygon fill="#c0c0c0" stroke="#c0c0c0" stroke-width="2" points="257.6089,-39.8986 247.6945,-36.1628 253.1153,-45.2659 257.6089,-39.8986"/>
</g>
<!-- 4 -->
<g id="node5" class="node">
<title>4</title>
<path fill="none" stroke="#88d856" stroke-width="2" d="M244.5,-252C244.5,-252 207.5,-252 207.5,-252 201.5,-252 195.5,-246 195.5,-240 195.5,-240 195.5,-228 195.5,-228 195.5,-222 201.5,-216 207.5,-216 207.5,-216 244.5,-216 244.5,-216 250.5,-216 256.5,-222 256.5,-228 256.5,-228 256.5,-240 256.5,-240 256.5,-246 250.5,-252 244.5,-252"/>
<text text-anchor="middle" x="226" y="-231.5" font-family="sans" font-size="10.00" fill="#000000">otu_clust</text>
</g>
<!-- 4&#45;&gt;1 -->
<g id="edge4" class="edge">
<title>4&#45;&gt;1</title>
<path fill="none" stroke="#c0c0c0" stroke-width="2" d="M226,-215.8314C226,-208.131 226,-198.9743 226,-190.4166"/>
<polygon fill="#c0c0c0" stroke="#c0c0c0" stroke-width="2" points="229.5001,-190.4132 226,-180.4133 222.5001,-190.4133 229.5001,-190.4132"/>
</g>
<!-- 5 -->
<g id="node6" class="node">
<title>5</title>
<path fill="none" stroke="#68d856" stroke-width="2" d="M270,-324C270,-324 182,-324 182,-324 176,-324 170,-318 170,-312 170,-312 170,-300 170,-300 170,-294 176,-288 182,-288 182,-288 270,-288 270,-288 276,-288 282,-294 282,-300 282,-300 282,-312 282,-312 282,-318 276,-324 270,-324"/>
<text text-anchor="middle" x="226" y="-303.5" font-family="sans" font-size="10.00" fill="#000000">merge_demultiplex</text>
</g>
<!-- 5&#45;&gt;4 -->
<g id="edge7" class="edge">
<title>5&#45;&gt;4</title>
<path fill="none" stroke="#c0c0c0" stroke-width="2" d="M226,-287.8314C226,-280.131 226,-270.9743 226,-262.4166"/>
<polygon fill="#c0c0c0" stroke="#c0c0c0" stroke-width="2" points="229.5001,-262.4132 226,-252.4133 222.5001,-262.4133 229.5001,-262.4132"/>
</g>
<!-- 6 -->
<g id="node7" class="node">
<title>6</title>
<path fill="none" stroke="#56d88a" stroke-width="2" d="M109.5,-396C109.5,-396 78.5,-396 78.5,-396 72.5,-396 66.5,-390 66.5,-384 66.5,-384 66.5,-372 66.5,-372 66.5,-366 72.5,-360 78.5,-360 78.5,-360 109.5,-360 109.5,-360 115.5,-360 121.5,-366 121.5,-372 121.5,-372 121.5,-384 121.5,-384 121.5,-390 115.5,-396 109.5,-396"/>
<text text-anchor="middle" x="94" y="-375.5" font-family="sans" font-size="10.00" fill="#000000">basicfilt</text>
</g>
<!-- 6&#45;&gt;5 -->
<g id="edge8" class="edge">
<title>6&#45;&gt;5</title>
<path fill="none" stroke="#c0c0c0" stroke-width="2" d="M121.6715,-362.9064C139.7154,-353.0643 163.6085,-340.0317 183.976,-328.9222"/>
<polygon fill="#c0c0c0" stroke="#c0c0c0" stroke-width="2" points="185.6531,-331.9943 192.7561,-324.133 182.3011,-325.849 185.6531,-331.9943"/>
</g>
<!-- 7 -->
<g id="node8" class="node">
<title>7</title>
<path fill="none" stroke="#56d88a" stroke-width="2" d="M198.5,-396C198.5,-396 167.5,-396 167.5,-396 161.5,-396 155.5,-390 155.5,-384 155.5,-384 155.5,-372 155.5,-372 155.5,-366 161.5,-360 167.5,-360 167.5,-360 198.5,-360 198.5,-360 204.5,-360 210.5,-366 210.5,-372 210.5,-372 210.5,-384 210.5,-384 210.5,-390 204.5,-396 198.5,-396"/>
<text text-anchor="middle" x="183" y="-375.5" font-family="sans" font-size="10.00" fill="#000000">basicfilt</text>
</g>
<!-- 7&#45;&gt;5 -->
<g id="edge9" class="edge">
<title>7&#45;&gt;5</title>
<path fill="none" stroke="#c0c0c0" stroke-width="2" d="M193.8507,-359.8314C198.7023,-351.7079 204.5217,-341.9637 209.868,-333.0118"/>
<polygon fill="#c0c0c0" stroke="#c0c0c0" stroke-width="2" points="212.8806,-334.7933 215.0032,-324.4133 206.8708,-331.2041 212.8806,-334.7933"/>
</g>
<!-- 8 -->
<g id="node9" class="node">
<title>8</title>
<path fill="none" stroke="#56d88a" stroke-width="2" d="M285.5,-396C285.5,-396 254.5,-396 254.5,-396 248.5,-396 242.5,-390 242.5,-384 242.5,-384 242.5,-372 242.5,-372 242.5,-366 248.5,-360 254.5,-360 254.5,-360 285.5,-360 285.5,-360 291.5,-360 297.5,-366 297.5,-372 297.5,-372 297.5,-384 297.5,-384 297.5,-390 291.5,-396 285.5,-396"/>
<text text-anchor="middle" x="270" y="-375.5" font-family="sans" font-size="10.00" fill="#000000">basicfilt</text>
</g>
<!-- 8&#45;&gt;5 -->
<g id="edge10" class="edge">
<title>8&#45;&gt;5</title>
<path fill="none" stroke="#c0c0c0" stroke-width="2" d="M258.8969,-359.8314C253.9326,-351.7079 247.9778,-341.9637 242.5072,-333.0118"/>
<polygon fill="#c0c0c0" stroke="#c0c0c0" stroke-width="2" points="245.4536,-331.121 237.2526,-324.4133 239.4806,-334.7712 245.4536,-331.121"/>
</g>
<!-- 9 -->
<g id="node10" class="node">
<title>9</title>
<path fill="none" stroke="#56d88a" stroke-width="2" d="M380.5,-396C380.5,-396 349.5,-396 349.5,-396 343.5,-396 337.5,-390 337.5,-384 337.5,-384 337.5,-372 337.5,-372 337.5,-366 343.5,-360 349.5,-360 349.5,-360 380.5,-360 380.5,-360 386.5,-360 392.5,-366 392.5,-372 392.5,-372 392.5,-384 392.5,-384 392.5,-390 386.5,-396 380.5,-396"/>
<text text-anchor="middle" x="365" y="-375.5" font-family="sans" font-size="10.00" fill="#000000">basicfilt</text>
</g>
<!-- 9&#45;&gt;5 -->
<g id="edge11" class="edge">
<title>9&#45;&gt;5</title>
<path fill="none" stroke="#c0c0c0" stroke-width="2" d="M337.2054,-363.6028C318.0029,-353.6562 292.0602,-340.2182 270.0619,-328.8234"/>
<polygon fill="#c0c0c0" stroke="#c0c0c0" stroke-width="2" points="271.396,-325.5728 260.9067,-324.0811 268.1763,-331.7885 271.396,-325.5728"/>
</g>
<!-- 10 -->
<g id="node11" class="node">
<title>10</title>
<path fill="none" stroke="#d89c56" stroke-width="2" d="M101,-468C101,-468 41,-468 41,-468 35,-468 29,-462 29,-456 29,-456 29,-444 29,-444 29,-438 35,-432 41,-432 41,-432 101,-432 101,-432 107,-432 113,-438 113,-444 113,-444 113,-456 113,-456 113,-462 107,-468 101,-468"/>
<text text-anchor="middle" x="71" y="-447.5" font-family="sans" font-size="10.00" fill="#000000">merge_derepl</text>
</g>
<!-- 10&#45;&gt;6 -->
<g id="edge12" class="edge">
<title>10&#45;&gt;6</title>
<path fill="none" stroke="#c0c0c0" stroke-width="2" d="M76.8039,-431.8314C79.2908,-424.0463 82.2531,-414.7729 85.0125,-406.1347"/>
<polygon fill="#c0c0c0" stroke="#c0c0c0" stroke-width="2" points="88.409,-407.0041 88.118,-396.4133 81.7409,-404.874 88.409,-407.0041"/>
</g>
<!-- 11 -->
<g id="node12" class="node">
<title>11</title>
<path fill="none" stroke="#d89c56" stroke-width="2" d="M206,-468C206,-468 146,-468 146,-468 140,-468 134,-462 134,-456 134,-456 134,-444 134,-444 134,-438 140,-432 146,-432 146,-432 206,-432 206,-432 212,-432 218,-438 218,-444 218,-444 218,-456 218,-456 218,-462 212,-468 206,-468"/>
<text text-anchor="middle" x="176" y="-447.5" font-family="sans" font-size="10.00" fill="#000000">merge_derepl</text>
</g>
<!-- 11&#45;&gt;7 -->
<g id="edge13" class="edge">
<title>11&#45;&gt;7</title>
<path fill="none" stroke="#c0c0c0" stroke-width="2" d="M177.7664,-431.8314C178.515,-424.131 179.4053,-414.9743 180.2373,-406.4166"/>
<polygon fill="#c0c0c0" stroke="#c0c0c0" stroke-width="2" points="183.7256,-406.7051 181.2098,-396.4133 176.7585,-406.0276 183.7256,-406.7051"/>
</g>
<!-- 12 -->
<g id="node13" class="node">
<title>12</title>
<path fill="none" stroke="#d89c56" stroke-width="2" d="M308,-468C308,-468 248,-468 248,-468 242,-468 236,-462 236,-456 236,-456 236,-444 236,-444 236,-438 242,-432 248,-432 248,-432 308,-432 308,-432 314,-432 320,-438 320,-444 320,-444 320,-456 320,-456 320,-462 314,-468 308,-468"/>
<text text-anchor="middle" x="278" y="-447.5" font-family="sans" font-size="10.00" fill="#000000">merge_derepl</text>
</g>
<!-- 12&#45;&gt;8 -->
<g id="edge14" class="edge">
<title>12&#45;&gt;8</title>
<path fill="none" stroke="#c0c0c0" stroke-width="2" d="M275.9813,-431.8314C275.1257,-424.131 274.1083,-414.9743 273.1574,-406.4166"/>
<polygon fill="#c0c0c0" stroke="#c0c0c0" stroke-width="2" points="276.6289,-405.9656 272.0459,-396.4133 269.6717,-406.7386 276.6289,-405.9656"/>
</g>
<!-- 13 -->
<g id="node14" class="node">
<title>13</title>
<path fill="none" stroke="#d89c56" stroke-width="2" d="M410,-468C410,-468 350,-468 350,-468 344,-468 338,-462 338,-456 338,-456 338,-444 338,-444 338,-438 344,-432 350,-432 350,-432 410,-432 410,-432 416,-432 422,-438 422,-444 422,-444 422,-456 422,-456 422,-462 416,-468 410,-468"/>
<text text-anchor="middle" x="380" y="-447.5" font-family="sans" font-size="10.00" fill="#000000">merge_derepl</text>
</g>
<!-- 13&#45;&gt;9 -->
<g id="edge15" class="edge">
<title>13&#45;&gt;9</title>
<path fill="none" stroke="#c0c0c0" stroke-width="2" d="M376.2149,-431.8314C374.6106,-424.131 372.703,-414.9743 370.9201,-406.4166"/>
<polygon fill="#c0c0c0" stroke="#c0c0c0" stroke-width="2" points="374.3021,-405.4892 368.8361,-396.4133 367.4493,-406.9169 374.3021,-405.4892"/>
</g>
<!-- 14 -->
<g id="node15" class="node">
<title>14</title>
<path fill="none" stroke="#569ad8" stroke-width="2" d="M89,-540C89,-540 45,-540 45,-540 39,-540 33,-534 33,-528 33,-528 33,-516 33,-516 33,-510 39,-504 45,-504 45,-504 89,-504 89,-504 95,-504 101,-510 101,-516 101,-516 101,-528 101,-528 101,-534 95,-540 89,-540"/>
<text text-anchor="middle" x="67" y="-519.5" font-family="sans" font-size="10.00" fill="#000000">split_fasta</text>
</g>
<!-- 14&#45;&gt;10 -->
<g id="edge16" class="edge">
<title>14&#45;&gt;10</title>
<path fill="none" stroke="#c0c0c0" stroke-width="2" d="M68.0094,-503.8314C68.4372,-496.131 68.9459,-486.9743 69.4213,-478.4166"/>
<polygon fill="#c0c0c0" stroke="#c0c0c0" stroke-width="2" points="72.9169,-478.592 69.977,-468.4133 65.9276,-478.2037 72.9169,-478.592"/>
</g>
<!-- 15 -->
<g id="node16" class="node">
<title>15</title>
<path fill="none" stroke="#569ad8" stroke-width="2" d="M195,-540C195,-540 151,-540 151,-540 145,-540 139,-534 139,-528 139,-528 139,-516 139,-516 139,-510 145,-504 151,-504 151,-504 195,-504 195,-504 201,-504 207,-510 207,-516 207,-516 207,-528 207,-528 207,-534 201,-540 195,-540"/>
<text text-anchor="middle" x="173" y="-519.5" font-family="sans" font-size="10.00" fill="#000000">split_fasta</text>
</g>
<!-- 15&#45;&gt;11 -->
<g id="edge17" class="edge">
<title>15&#45;&gt;11</title>
<path fill="none" stroke="#c0c0c0" stroke-width="2" d="M173.757,-503.8314C174.0779,-496.131 174.4594,-486.9743 174.816,-478.4166"/>
<polygon fill="#c0c0c0" stroke="#c0c0c0" stroke-width="2" points="178.3133,-478.5503 175.2328,-468.4133 171.3194,-478.2589 178.3133,-478.5503"/>
</g>
<!-- 16 -->
<g id="node17" class="node">
<title>16</title>
<path fill="none" stroke="#569ad8" stroke-width="2" d="M300,-540C300,-540 256,-540 256,-540 250,-540 244,-534 244,-528 244,-528 244,-516 244,-516 244,-510 250,-504 256,-504 256,-504 300,-504 300,-504 306,-504 312,-510 312,-516 312,-516 312,-528 312,-528 312,-534 306,-540 300,-540"/>
<text text-anchor="middle" x="278" y="-519.5" font-family="sans" font-size="10.00" fill="#000000">split_fasta</text>
</g>
<!-- 16&#45;&gt;12 -->
<g id="edge18" class="edge">
<title>16&#45;&gt;12</title>
<path fill="none" stroke="#c0c0c0" stroke-width="2" d="M278,-503.8314C278,-496.131 278,-486.9743 278,-478.4166"/>
<polygon fill="#c0c0c0" stroke="#c0c0c0" stroke-width="2" points="281.5001,-478.4132 278,-468.4133 274.5001,-478.4133 281.5001,-478.4132"/>
</g>
<!-- 17 -->
<g id="node18" class="node">
<title>17</title>
<path fill="none" stroke="#569ad8" stroke-width="2" d="M402,-540C402,-540 358,-540 358,-540 352,-540 346,-534 346,-528 346,-528 346,-516 346,-516 346,-510 352,-504 358,-504 358,-504 402,-504 402,-504 408,-504 414,-510 414,-516 414,-516 414,-528 414,-528 414,-534 408,-540 402,-540"/>
<text text-anchor="middle" x="380" y="-519.5" font-family="sans" font-size="10.00" fill="#000000">split_fasta</text>
</g>
<!-- 17&#45;&gt;13 -->
<g id="edge19" class="edge">
<title>17&#45;&gt;13</title>
<path fill="none" stroke="#c0c0c0" stroke-width="2" d="M380,-503.8314C380,-496.131 380,-486.9743 380,-478.4166"/>
<polygon fill="#c0c0c0" stroke="#c0c0c0" stroke-width="2" points="383.5001,-478.4132 380,-468.4133 376.5001,-478.4133 383.5001,-478.4132"/>
</g>
<!-- 18 -->
<g id="node19" class="node">
<title>18</title>
<path fill="none" stroke="#567bd8" stroke-width="2" d="M83.5,-612C83.5,-612 32.5,-612 32.5,-612 26.5,-612 20.5,-606 20.5,-600 20.5,-600 20.5,-588 20.5,-588 20.5,-582 26.5,-576 32.5,-576 32.5,-576 83.5,-576 83.5,-576 89.5,-576 95.5,-582 95.5,-588 95.5,-588 95.5,-600 95.5,-600 95.5,-606 89.5,-612 83.5,-612"/>
<text text-anchor="middle" x="58" y="-591.5" font-family="sans" font-size="10.00" fill="#000000">demultiplex</text>
</g>
<!-- 18&#45;&gt;14 -->
<g id="edge20" class="edge">
<title>18&#45;&gt;14</title>
<path fill="none" stroke="#c0c0c0" stroke-width="2" d="M60.2711,-575.8314C61.2336,-568.131 62.3782,-558.9743 63.4479,-550.4166"/>
<polygon fill="#c0c0c0" stroke="#c0c0c0" stroke-width="2" points="66.9309,-550.7702 64.6983,-540.4133 59.9849,-549.9019 66.9309,-550.7702"/>
</g>
<!-- 19 -->
<g id="node20" class="node">
<title>19</title>
<path fill="none" stroke="#567bd8" stroke-width="2" d="M198.5,-612C198.5,-612 147.5,-612 147.5,-612 141.5,-612 135.5,-606 135.5,-600 135.5,-600 135.5,-588 135.5,-588 135.5,-582 141.5,-576 147.5,-576 147.5,-576 198.5,-576 198.5,-576 204.5,-576 210.5,-582 210.5,-588 210.5,-588 210.5,-600 210.5,-600 210.5,-606 204.5,-612 198.5,-612"/>
<text text-anchor="middle" x="173" y="-591.5" font-family="sans" font-size="10.00" fill="#000000">demultiplex</text>
</g>
<!-- 19&#45;&gt;15 -->
<g id="edge21" class="edge">
<title>19&#45;&gt;15</title>
<path fill="none" stroke="#c0c0c0" stroke-width="2" d="M173,-575.8314C173,-568.131 173,-558.9743 173,-550.4166"/>
<polygon fill="#c0c0c0" stroke="#c0c0c0" stroke-width="2" points="176.5001,-550.4132 173,-540.4133 169.5001,-550.4133 176.5001,-550.4132"/>
</g>
<!-- 20 -->
<g id="node21" class="node">
<title>20</title>
<path fill="none" stroke="#567bd8" stroke-width="2" d="M303.5,-612C303.5,-612 252.5,-612 252.5,-612 246.5,-612 240.5,-606 240.5,-600 240.5,-600 240.5,-588 240.5,-588 240.5,-582 246.5,-576 252.5,-576 252.5,-576 303.5,-576 303.5,-576 309.5,-576 315.5,-582 315.5,-588 315.5,-588 315.5,-600 315.5,-600 315.5,-606 309.5,-612 303.5,-612"/>
<text text-anchor="middle" x="278" y="-591.5" font-family="sans" font-size="10.00" fill="#000000">demultiplex</text>
</g>
<!-- 20&#45;&gt;16 -->
<g id="edge22" class="edge">
<title>20&#45;&gt;16</title>
<path fill="none" stroke="#c0c0c0" stroke-width="2" d="M278,-575.8314C278,-568.131 278,-558.9743 278,-550.4166"/>
<polygon fill="#c0c0c0" stroke="#c0c0c0" stroke-width="2" points="281.5001,-550.4132 278,-540.4133 274.5001,-550.4133 281.5001,-550.4132"/>
</g>
<!-- 21 -->
<g id="node22" class="node">
<title>21</title>
<path fill="none" stroke="#567bd8" stroke-width="2" stroke-dasharray="5,2" d="M405.5,-612C405.5,-612 354.5,-612 354.5,-612 348.5,-612 342.5,-606 342.5,-600 342.5,-600 342.5,-588 342.5,-588 342.5,-582 348.5,-576 354.5,-576 354.5,-576 405.5,-576 405.5,-576 411.5,-576 417.5,-582 417.5,-588 417.5,-588 417.5,-600 417.5,-600 417.5,-606 411.5,-612 405.5,-612"/>
<text text-anchor="middle" x="380" y="-591.5" font-family="sans" font-size="10.00" fill="#000000">demultiplex</text>
</g>
<!-- 21&#45;&gt;17 -->
<g id="edge23" class="edge">
<title>21&#45;&gt;17</title>
<path fill="none" stroke="#c0c0c0" stroke-width="2" d="M380,-575.8314C380,-568.131 380,-558.9743 380,-550.4166"/>
<polygon fill="#c0c0c0" stroke="#c0c0c0" stroke-width="2" points="383.5001,-550.4132 380,-540.4133 376.5001,-550.4133 383.5001,-550.4132"/>
</g>
<!-- 22 -->
<g id="node23" class="node">
<title>22</title>
<path fill="none" stroke="#56d8d0" stroke-width="2" d="M68,-684C68,-684 38,-684 38,-684 32,-684 26,-678 26,-672 26,-672 26,-660 26,-660 26,-654 32,-648 38,-648 38,-648 68,-648 68,-648 74,-648 80,-654 80,-660 80,-660 80,-672 80,-672 80,-678 74,-684 68,-684"/>
<text text-anchor="middle" x="53" y="-663.5" font-family="sans" font-size="10.00" fill="#000000">alifilt</text>
</g>
<!-- 22&#45;&gt;18 -->
<g id="edge24" class="edge">
<title>22&#45;&gt;18</title>
<path fill="none" stroke="#c0c0c0" stroke-width="2" d="M54.2617,-647.8314C54.7965,-640.131 55.4323,-630.9743 56.0266,-622.4166"/>
<polygon fill="#c0c0c0" stroke="#c0c0c0" stroke-width="2" points="59.52,-622.6317 56.7213,-612.4133 52.5368,-622.1467 59.52,-622.6317"/>
</g>
<!-- 23 -->
<g id="node24" class="node">
<title>23</title>
<path fill="none" stroke="#56d8d0" stroke-width="2" d="M186,-684C186,-684 156,-684 156,-684 150,-684 144,-678 144,-672 144,-672 144,-660 144,-660 144,-654 150,-648 156,-648 156,-648 186,-648 186,-648 192,-648 198,-654 198,-660 198,-660 198,-672 198,-672 198,-678 192,-684 186,-684"/>
<text text-anchor="middle" x="171" y="-663.5" font-family="sans" font-size="10.00" fill="#000000">alifilt</text>
</g>
<!-- 23&#45;&gt;19 -->
<g id="edge25" class="edge">
<title>23&#45;&gt;19</title>
<path fill="none" stroke="#c0c0c0" stroke-width="2" d="M171.5047,-647.8314C171.7186,-640.131 171.9729,-630.9743 172.2106,-622.4166"/>
<polygon fill="#c0c0c0" stroke="#c0c0c0" stroke-width="2" points="175.7094,-622.5066 172.4885,-612.4133 168.7121,-622.3122 175.7094,-622.5066"/>
</g>
<!-- 24 -->
<g id="node25" class="node">
<title>24</title>
<path fill="none" stroke="#56d8d0" stroke-width="2" d="M293,-684C293,-684 263,-684 263,-684 257,-684 251,-678 251,-672 251,-672 251,-660 251,-660 251,-654 257,-648 263,-648 263,-648 293,-648 293,-648 299,-648 305,-654 305,-660 305,-660 305,-672 305,-672 305,-678 299,-684 293,-684"/>
<text text-anchor="middle" x="278" y="-663.5" font-family="sans" font-size="10.00" fill="#000000">alifilt</text>
</g>
<!-- 24&#45;&gt;20 -->
<g id="edge26" class="edge">
<title>24&#45;&gt;20</title>
<path fill="none" stroke="#c0c0c0" stroke-width="2" d="M278,-647.8314C278,-640.131 278,-630.9743 278,-622.4166"/>
<polygon fill="#c0c0c0" stroke="#c0c0c0" stroke-width="2" points="281.5001,-622.4132 278,-612.4133 274.5001,-622.4133 281.5001,-622.4132"/>
</g>
<!-- 25 -->
<g id="node26" class="node">
<title>25</title>
<path fill="none" stroke="#56d8d0" stroke-width="2" stroke-dasharray="5,2" d="M395,-684C395,-684 365,-684 365,-684 359,-684 353,-678 353,-672 353,-672 353,-660 353,-660 353,-654 359,-648 365,-648 365,-648 395,-648 395,-648 401,-648 407,-654 407,-660 407,-660 407,-672 407,-672 407,-678 401,-684 395,-684"/>
<text text-anchor="middle" x="380" y="-663.5" font-family="sans" font-size="10.00" fill="#000000">alifilt</text>
</g>
<!-- 25&#45;&gt;21 -->
<g id="edge27" class="edge">
<title>25&#45;&gt;21</title>
<path fill="none" stroke="#c0c0c0" stroke-width="2" d="M380,-647.8314C380,-640.131 380,-630.9743 380,-622.4166"/>
<polygon fill="#c0c0c0" stroke="#c0c0c0" stroke-width="2" points="383.5001,-622.4132 380,-612.4133 376.5001,-622.4133 383.5001,-622.4132"/>
</g>
<!-- 26 -->
<g id="node27" class="node">
<title>26</title>
<path fill="none" stroke="#afd856" stroke-width="2" d="M81,-756C81,-756 21,-756 21,-756 15,-756 9,-750 9,-744 9,-744 9,-732 9,-732 9,-726 15,-720 21,-720 21,-720 81,-720 81,-720 87,-720 93,-726 93,-732 93,-732 93,-744 93,-744 93,-750 87,-756 81,-756"/>
<text text-anchor="middle" x="51" y="-735.5" font-family="sans" font-size="10.00" fill="#000000">merge_paired</text>
</g>
<!-- 26&#45;&gt;22 -->
<g id="edge28" class="edge">
<title>26&#45;&gt;22</title>
<path fill="none" stroke="#c0c0c0" stroke-width="2" d="M51.5047,-719.8314C51.7186,-712.131 51.9729,-702.9743 52.2106,-694.4166"/>
<polygon fill="#c0c0c0" stroke="#c0c0c0" stroke-width="2" points="55.7094,-694.5066 52.4885,-684.4133 48.7121,-694.3122 55.7094,-694.5066"/>
</g>
<!-- 27 -->
<g id="node28" class="node">
<title>27</title>
<path fill="none" stroke="#afd856" stroke-width="2" d="M201,-756C201,-756 141,-756 141,-756 135,-756 129,-750 129,-744 129,-744 129,-732 129,-732 129,-726 135,-720 141,-720 141,-720 201,-720 201,-720 207,-720 213,-726 213,-732 213,-732 213,-744 213,-744 213,-750 207,-756 201,-756"/>
<text text-anchor="middle" x="171" y="-735.5" font-family="sans" font-size="10.00" fill="#000000">merge_paired</text>
</g>
<!-- 27&#45;&gt;23 -->
<g id="edge29" class="edge">
<title>27&#45;&gt;23</title>
<path fill="none" stroke="#c0c0c0" stroke-width="2" d="M171,-719.8314C171,-712.131 171,-702.9743 171,-694.4166"/>
<polygon fill="#c0c0c0" stroke="#c0c0c0" stroke-width="2" points="174.5001,-694.4132 171,-684.4133 167.5001,-694.4133 174.5001,-694.4132"/>
</g>
<!-- 28 -->
<g id="node29" class="node">
<title>28</title>
<path fill="none" stroke="#afd856" stroke-width="2" d="M308,-756C308,-756 248,-756 248,-756 242,-756 236,-750 236,-744 236,-744 236,-732 236,-732 236,-726 242,-720 248,-720 248,-720 308,-720 308,-720 314,-720 320,-726 320,-732 320,-732 320,-744 320,-744 320,-750 314,-756 308,-756"/>
<text text-anchor="middle" x="278" y="-735.5" font-family="sans" font-size="10.00" fill="#000000">merge_paired</text>
</g>
<!-- 28&#45;&gt;24 -->
<g id="edge30" class="edge">
<title>28&#45;&gt;24</title>
<path fill="none" stroke="#c0c0c0" stroke-width="2" d="M278,-719.8314C278,-712.131 278,-702.9743 278,-694.4166"/>
<polygon fill="#c0c0c0" stroke="#c0c0c0" stroke-width="2" points="281.5001,-694.4132 278,-684.4133 274.5001,-694.4133 281.5001,-694.4132"/>
</g>
<!-- 29 -->
<g id="node30" class="node">
<title>29</title>
<path fill="none" stroke="#afd856" stroke-width="2" stroke-dasharray="5,2" d="M411,-756C411,-756 351,-756 351,-756 345,-756 339,-750 339,-744 339,-744 339,-732 339,-732 339,-726 345,-720 351,-720 351,-720 411,-720 411,-720 417,-720 423,-726 423,-732 423,-732 423,-744 423,-744 423,-750 417,-756 411,-756"/>
<text text-anchor="middle" x="381" y="-735.5" font-family="sans" font-size="10.00" fill="#000000">merge_paired</text>
</g>
<!-- 29&#45;&gt;25 -->
<g id="edge31" class="edge">
<title>29&#45;&gt;25</title>
<path fill="none" stroke="#c0c0c0" stroke-width="2" d="M380.7477,-719.8314C380.6407,-712.131 380.5135,-702.9743 380.3947,-694.4166"/>
<polygon fill="#c0c0c0" stroke="#c0c0c0" stroke-width="2" points="383.8944,-694.3637 380.2557,-684.4133 376.8951,-694.4609 383.8944,-694.3637"/>
</g>
<!-- 30 -->
<g id="node31" class="node">
<title>30</title>
<path fill="none" stroke="#56c1d8" stroke-width="2" d="M88,-828C88,-828 12,-828 12,-828 6,-828 0,-822 0,-816 0,-816 0,-804 0,-804 0,-798 6,-792 12,-792 12,-792 88,-792 88,-792 94,-792 100,-798 100,-804 100,-804 100,-816 100,-816 100,-822 94,-828 88,-828"/>
<text text-anchor="middle" x="50" y="-813" font-family="sans" font-size="10.00" fill="#000000">split_fastq</text>
<text text-anchor="middle" x="50" y="-802" font-family="sans" font-size="10.00" fill="#000000">run: mother_ITS2</text>
</g>
<!-- 30&#45;&gt;26 -->
<g id="edge32" class="edge">
<title>30&#45;&gt;26</title>
<path fill="none" stroke="#c0c0c0" stroke-width="2" d="M50.2523,-791.8314C50.3593,-784.131 50.4865,-774.9743 50.6053,-766.4166"/>
<polygon fill="#c0c0c0" stroke="#c0c0c0" stroke-width="2" points="54.1049,-766.4609 50.7443,-756.4133 47.1056,-766.3637 54.1049,-766.4609"/>
</g>
<!-- 31 -->
<g id="node32" class="node">
<title>31</title>
<path fill="none" stroke="#56c1d8" stroke-width="2" d="M212,-828C212,-828 130,-828 130,-828 124,-828 118,-822 118,-816 118,-816 118,-804 118,-804 118,-798 124,-792 130,-792 130,-792 212,-792 212,-792 218,-792 224,-798 224,-804 224,-804 224,-816 224,-816 224,-822 218,-828 212,-828"/>
<text text-anchor="middle" x="171" y="-813" font-family="sans" font-size="10.00" fill="#000000">split_fastq</text>
<text text-anchor="middle" x="171" y="-802" font-family="sans" font-size="10.00" fill="#000000">run: seedling_ITS2</text>
</g>
<!-- 31&#45;&gt;27 -->
<g id="edge33" class="edge">
<title>31&#45;&gt;27</title>
<path fill="none" stroke="#c0c0c0" stroke-width="2" d="M171,-791.8314C171,-784.131 171,-774.9743 171,-766.4166"/>
<polygon fill="#c0c0c0" stroke="#c0c0c0" stroke-width="2" points="174.5001,-766.4132 171,-756.4133 167.5001,-766.4133 174.5001,-766.4132"/>
</g>
<!-- 32 -->
<g id="node33" class="node">
<title>32</title>
<path fill="none" stroke="#56c1d8" stroke-width="2" d="M307.5,-828C307.5,-828 254.5,-828 254.5,-828 248.5,-828 242.5,-822 242.5,-816 242.5,-816 242.5,-804 242.5,-804 242.5,-798 248.5,-792 254.5,-792 254.5,-792 307.5,-792 307.5,-792 313.5,-792 319.5,-798 319.5,-804 319.5,-804 319.5,-816 319.5,-816 319.5,-822 313.5,-828 307.5,-828"/>
<text text-anchor="middle" x="281" y="-813" font-family="sans" font-size="10.00" fill="#000000">split_fastq</text>
<text text-anchor="middle" x="281" y="-802" font-family="sans" font-size="10.00" fill="#000000">run: jm_ITS2</text>
</g>
<!-- 32&#45;&gt;28 -->
<g id="edge34" class="edge">
<title>32&#45;&gt;28</title>
<path fill="none" stroke="#c0c0c0" stroke-width="2" d="M280.243,-791.8314C279.9221,-784.131 279.5406,-774.9743 279.184,-766.4166"/>
<polygon fill="#c0c0c0" stroke="#c0c0c0" stroke-width="2" points="282.6806,-766.2589 278.7672,-756.4133 275.6867,-766.5503 282.6806,-766.2589"/>
</g>
<!-- 33 -->
<g id="node34" class="node">
<title>33</title>
<path fill="none" stroke="#56c1d8" stroke-width="2" stroke-dasharray="5,2" d="M414.5,-828C414.5,-828 349.5,-828 349.5,-828 343.5,-828 337.5,-822 337.5,-816 337.5,-816 337.5,-804 337.5,-804 337.5,-798 343.5,-792 349.5,-792 349.5,-792 414.5,-792 414.5,-792 420.5,-792 426.5,-798 426.5,-804 426.5,-804 426.5,-816 426.5,-816 426.5,-822 420.5,-828 414.5,-828"/>
<text text-anchor="middle" x="382" y="-813" font-family="sans" font-size="10.00" fill="#000000">split_fastq</text>
<text text-anchor="middle" x="382" y="-802" font-family="sans" font-size="10.00" fill="#000000">run: jm_ITS2_2</text>
</g>
<!-- 33&#45;&gt;29 -->
<g id="edge35" class="edge">
<title>33&#45;&gt;29</title>
<path fill="none" stroke="#c0c0c0" stroke-width="2" d="M381.7477,-791.8314C381.6407,-784.131 381.5135,-774.9743 381.3947,-766.4166"/>
<polygon fill="#c0c0c0" stroke="#c0c0c0" stroke-width="2" points="384.8944,-766.3637 381.2557,-756.4133 377.8951,-766.4609 384.8944,-766.3637"/>
</g>
</g>
</svg>
